<mxfile host="app.diagrams.net" agent="Mozilla/5.0 (Windows NT 10.0; Win64; x64) AppleWebKit/537.36 (KHTML, like Gecko) Chrome/128.0.0.0 Safari/537.36 OPR/114.0.0.0" version="24.8.1">
  <diagram name="Page-1" id="hih9J6nxBTyeJ7_AwYjr">
    <mxGraphModel dx="1441" dy="837" grid="1" gridSize="10" guides="1" tooltips="1" connect="1" arrows="1" fold="1" page="1" pageScale="1" pageWidth="850" pageHeight="1100" math="0" shadow="0">
      <root>
        <mxCell id="0" />
        <mxCell id="1" parent="0" />
        <mxCell id="2" value="ApplicationÂ " style="whiteSpace=wrap;strokeWidth=2;fontSize=22;" parent="1" vertex="1">
          <mxGeometry x="308.5" y="180" width="244" height="68" as="geometry" />
        </mxCell>
        <mxCell id="r-u0TVwrOQ-muBAuog6q-27" value="&lt;font style=&quot;font-size: 20px;&quot;&gt;Sender&lt;/font&gt;" style="rounded=1;whiteSpace=wrap;html=1;fillColor=#1C1721;strokeColor=#432D57;fontColor=#ffffff;" parent="1" vertex="1">
          <mxGeometry x="270" y="60" width="120" height="70" as="geometry" />
        </mxCell>
        <mxCell id="r-u0TVwrOQ-muBAuog6q-29" value="" style="shape=flexArrow;endArrow=classic;html=1;rounded=0;" parent="1" edge="1">
          <mxGeometry width="50" height="50" relative="1" as="geometry">
            <mxPoint x="329.58" y="130" as="sourcePoint" />
            <mxPoint x="329.58" y="180" as="targetPoint" />
          </mxGeometry>
        </mxCell>
        <mxCell id="vdWfwRqDYit5zLFxqtQ_-18" value="Presentation" style="whiteSpace=wrap;strokeWidth=2;fontSize=22;" vertex="1" parent="1">
          <mxGeometry x="308.5" y="270" width="244" height="68" as="geometry" />
        </mxCell>
        <mxCell id="vdWfwRqDYit5zLFxqtQ_-19" value="Session" style="whiteSpace=wrap;strokeWidth=2;fontSize=22;" vertex="1" parent="1">
          <mxGeometry x="308.5" y="360" width="244" height="68" as="geometry" />
        </mxCell>
        <mxCell id="vdWfwRqDYit5zLFxqtQ_-20" value="Network" style="whiteSpace=wrap;strokeWidth=2;fontSize=22;" vertex="1" parent="1">
          <mxGeometry x="308.5" y="540" width="244" height="68" as="geometry" />
        </mxCell>
        <mxCell id="vdWfwRqDYit5zLFxqtQ_-21" value="Transport" style="whiteSpace=wrap;strokeWidth=2;fontSize=22;" vertex="1" parent="1">
          <mxGeometry x="308.5" y="450" width="244" height="68" as="geometry" />
        </mxCell>
        <mxCell id="vdWfwRqDYit5zLFxqtQ_-22" value="Physical" style="whiteSpace=wrap;strokeWidth=2;fontSize=22;" vertex="1" parent="1">
          <mxGeometry x="308.5" y="720" width="244" height="68" as="geometry" />
        </mxCell>
        <mxCell id="vdWfwRqDYit5zLFxqtQ_-23" value="Data Link" style="whiteSpace=wrap;strokeWidth=2;fontSize=22;" vertex="1" parent="1">
          <mxGeometry x="308.5" y="630" width="244" height="68" as="geometry" />
        </mxCell>
        <mxCell id="vdWfwRqDYit5zLFxqtQ_-24" value="&lt;font style=&quot;font-size: 20px;&quot;&gt;Reciever&lt;/font&gt;" style="rounded=1;whiteSpace=wrap;html=1;fillColor=#1C1721;strokeColor=#432D57;fontColor=#ffffff;" vertex="1" parent="1">
          <mxGeometry x="470" y="60" width="120" height="70" as="geometry" />
        </mxCell>
        <mxCell id="vdWfwRqDYit5zLFxqtQ_-25" value="" style="shape=flexArrow;endArrow=classic;html=1;rounded=0;exitX=0.906;exitY=0;exitDx=0;exitDy=0;exitPerimeter=0;entryX=0.5;entryY=1;entryDx=0;entryDy=0;" edge="1" parent="1" source="2" target="vdWfwRqDYit5zLFxqtQ_-24">
          <mxGeometry width="50" height="50" relative="1" as="geometry">
            <mxPoint x="529.63" y="130" as="sourcePoint" />
            <mxPoint x="580" y="150" as="targetPoint" />
          </mxGeometry>
        </mxCell>
        <mxCell id="vdWfwRqDYit5zLFxqtQ_-38" value="" style="endArrow=classic;html=1;rounded=0;endSize=20;" edge="1" parent="1">
          <mxGeometry width="50" height="50" relative="1" as="geometry">
            <mxPoint x="260" y="174" as="sourcePoint" />
            <mxPoint x="260" y="784" as="targetPoint" />
          </mxGeometry>
        </mxCell>
        <mxCell id="vdWfwRqDYit5zLFxqtQ_-39" value="" style="endArrow=classic;html=1;rounded=0;endSize=20;" edge="1" parent="1">
          <mxGeometry width="50" height="50" relative="1" as="geometry">
            <mxPoint x="600" y="790" as="sourcePoint" />
            <mxPoint x="600" y="174" as="targetPoint" />
          </mxGeometry>
        </mxCell>
        <mxCell id="vdWfwRqDYit5zLFxqtQ_-43" value="&lt;font style=&quot;font-size: 15px;&quot;&gt;These are your software applications like browsers.&lt;/font&gt;" style="text;strokeColor=none;align=center;fillColor=none;html=1;verticalAlign=middle;whiteSpace=wrap;rounded=0;" vertex="1" parent="1">
          <mxGeometry x="655" y="168" width="150" height="80" as="geometry" />
        </mxCell>
        <mxCell id="vdWfwRqDYit5zLFxqtQ_-44" value="Data from AL will be encrypted, translated, abstracted, compressed and sent to the next layer." style="text;whiteSpace=wrap;align=center;fontSize=16;" vertex="1" parent="1">
          <mxGeometry x="30" y="254" width="180" height="100" as="geometry" />
        </mxCell>
        <mxCell id="vdWfwRqDYit5zLFxqtQ_-45" value="Helps in setting up and managing connections, authorization and authentication." style="text;whiteSpace=wrap;align=center;fontSize=14;" vertex="1" parent="1">
          <mxGeometry x="640" y="359" width="170" height="70" as="geometry" />
        </mxCell>
        <mxCell id="vdWfwRqDYit5zLFxqtQ_-46" value="Data is segmented and every segment contains source and destination ports and sequence numbers. It manages error control, flow control." style="text;whiteSpace=wrap;fontSize=14;align=center;" vertex="1" parent="1">
          <mxGeometry x="20" y="440" width="220" height="90" as="geometry" />
        </mxCell>
        <mxCell id="vdWfwRqDYit5zLFxqtQ_-47" value="Internet Protocol (IP), responsible for assigning unique IP addresses to devices and facilitating communication between different networks." style="text;whiteSpace=wrap;align=center;" vertex="1" parent="1">
          <mxGeometry x="630" y="528" width="190" height="90" as="geometry" />
        </mxCell>
        <mxCell id="vdWfwRqDYit5zLFxqtQ_-48" value="Receives data packets from the NL. Data is framed here, header, payload is added, and at the receiver&#39;s side, MAC addresses are assigned." style="text;whiteSpace=wrap;align=center;" vertex="1" parent="1">
          <mxGeometry x="30" y="628" width="170" height="72" as="geometry" />
        </mxCell>
        <mxCell id="vdWfwRqDYit5zLFxqtQ_-49" value="It receives the data and is responsible for transmitting raw binary data over a physical medium such as cables, radio waves or fiber optics." style="text;whiteSpace=wrap;align=center;fontSize=13;" vertex="1" parent="1">
          <mxGeometry x="630" y="717" width="200" height="74" as="geometry" />
        </mxCell>
        <mxCell id="vdWfwRqDYit5zLFxqtQ_-52" value="" style="endArrow=none;dashed=1;html=1;dashPattern=1 3;strokeWidth=2;rounded=0;entryX=-0.013;entryY=0.581;entryDx=0;entryDy=0;entryPerimeter=0;" edge="1" parent="1" target="vdWfwRqDYit5zLFxqtQ_-18">
          <mxGeometry width="50" height="50" relative="1" as="geometry">
            <mxPoint x="220" y="310" as="sourcePoint" />
            <mxPoint x="340" y="250" as="targetPoint" />
          </mxGeometry>
        </mxCell>
        <mxCell id="vdWfwRqDYit5zLFxqtQ_-53" value="" style="endArrow=none;dashed=1;html=1;dashPattern=1 3;strokeWidth=2;rounded=0;entryX=1;entryY=0.5;entryDx=0;entryDy=0;exitX=0;exitY=0.569;exitDx=0;exitDy=0;exitPerimeter=0;" edge="1" parent="1" source="vdWfwRqDYit5zLFxqtQ_-43" target="2">
          <mxGeometry width="50" height="50" relative="1" as="geometry">
            <mxPoint x="460" y="290" as="sourcePoint" />
            <mxPoint x="510" y="240" as="targetPoint" />
          </mxGeometry>
        </mxCell>
        <mxCell id="vdWfwRqDYit5zLFxqtQ_-54" value="" style="endArrow=none;dashed=1;html=1;dashPattern=1 3;strokeWidth=2;rounded=0;entryX=1;entryY=0.5;entryDx=0;entryDy=0;exitX=0;exitY=0.5;exitDx=0;exitDy=0;" edge="1" parent="1" source="vdWfwRqDYit5zLFxqtQ_-45" target="vdWfwRqDYit5zLFxqtQ_-19">
          <mxGeometry width="50" height="50" relative="1" as="geometry">
            <mxPoint x="460" y="430" as="sourcePoint" />
            <mxPoint x="510" y="380" as="targetPoint" />
          </mxGeometry>
        </mxCell>
        <mxCell id="vdWfwRqDYit5zLFxqtQ_-55" value="" style="endArrow=none;dashed=1;html=1;dashPattern=1 3;strokeWidth=2;rounded=0;exitX=1;exitY=0.5;exitDx=0;exitDy=0;entryX=0;entryY=0.5;entryDx=0;entryDy=0;" edge="1" parent="1" source="vdWfwRqDYit5zLFxqtQ_-46" target="vdWfwRqDYit5zLFxqtQ_-21">
          <mxGeometry width="50" height="50" relative="1" as="geometry">
            <mxPoint x="290" y="490" as="sourcePoint" />
            <mxPoint x="340" y="440" as="targetPoint" />
          </mxGeometry>
        </mxCell>
        <mxCell id="vdWfwRqDYit5zLFxqtQ_-56" value="" style="endArrow=none;dashed=1;html=1;dashPattern=1 3;strokeWidth=2;rounded=0;exitX=1;exitY=0.5;exitDx=0;exitDy=0;entryX=0;entryY=0.5;entryDx=0;entryDy=0;" edge="1" parent="1" source="vdWfwRqDYit5zLFxqtQ_-20" target="vdWfwRqDYit5zLFxqtQ_-47">
          <mxGeometry width="50" height="50" relative="1" as="geometry">
            <mxPoint x="550" y="560" as="sourcePoint" />
            <mxPoint x="600" y="510" as="targetPoint" />
          </mxGeometry>
        </mxCell>
        <mxCell id="vdWfwRqDYit5zLFxqtQ_-57" value="" style="endArrow=none;dashed=1;html=1;dashPattern=1 3;strokeWidth=2;rounded=0;exitX=1;exitY=0.5;exitDx=0;exitDy=0;entryX=0;entryY=0.5;entryDx=0;entryDy=0;" edge="1" parent="1" source="vdWfwRqDYit5zLFxqtQ_-48" target="vdWfwRqDYit5zLFxqtQ_-23">
          <mxGeometry width="50" height="50" relative="1" as="geometry">
            <mxPoint x="200" y="650" as="sourcePoint" />
            <mxPoint x="250" y="600" as="targetPoint" />
          </mxGeometry>
        </mxCell>
        <mxCell id="vdWfwRqDYit5zLFxqtQ_-58" value="" style="endArrow=none;dashed=1;html=1;dashPattern=1 3;strokeWidth=2;rounded=0;exitX=1;exitY=0.5;exitDx=0;exitDy=0;entryX=0;entryY=0.5;entryDx=0;entryDy=0;" edge="1" parent="1" source="vdWfwRqDYit5zLFxqtQ_-22" target="vdWfwRqDYit5zLFxqtQ_-49">
          <mxGeometry width="50" height="50" relative="1" as="geometry">
            <mxPoint x="590" y="770" as="sourcePoint" />
            <mxPoint x="640" y="720" as="targetPoint" />
          </mxGeometry>
        </mxCell>
        <mxCell id="vdWfwRqDYit5zLFxqtQ_-59" value="" style="endArrow=none;html=1;rounded=0;endFill=0;startArrow=block;startFill=1;" edge="1" parent="1">
          <mxGeometry width="50" height="50" relative="1" as="geometry">
            <mxPoint x="510" y="790" as="sourcePoint" />
            <mxPoint x="330" y="790" as="targetPoint" />
            <Array as="points">
              <mxPoint x="510" y="860" />
              <mxPoint x="330" y="860" />
            </Array>
          </mxGeometry>
        </mxCell>
        <mxCell id="vdWfwRqDYit5zLFxqtQ_-60" value="Transmission&lt;div&gt;Medium&lt;/div&gt;" style="edgeLabel;html=1;align=center;verticalAlign=middle;resizable=0;points=[];" vertex="1" connectable="0" parent="vdWfwRqDYit5zLFxqtQ_-59">
          <mxGeometry x="0.0063" relative="1" as="geometry">
            <mxPoint as="offset" />
          </mxGeometry>
        </mxCell>
      </root>
    </mxGraphModel>
  </diagram>
</mxfile>
